# xmcd
#
# Track frame offsets:
#	150
#	18512
#	35972
#	50966
#	64385
#	79416
#	94182
#	110222
#	122399
#	137284
#	155206
#	169775
#	182791
#	199532
#	214831
#	228090
#	242941
#	258608
#	272808
#	284845
#	298077
#	314402
#	326893
#	342225
#
# Disc length: 4749 seconds
#
# Revision: 0
# Processed by: cddbd v1.5.2PL0 Copyright (c) Steve Scherf et al.
# Submitted via: EasyCDDAExtractor 11.5.0.1
#
DISCID=8a128b18
DTITLE=Manno and Magno - Ao VIVO
DYEAR=2008
DGENRE=country
TTITLE0=Só Hoje
TTITLE1=Essa tal liberdade
TTITLE2=Tema de novela
TTITLE3=Muda de vida
TTITLE4=Por causa dela
TTITLE5=Pra mim não cola
TTITLE6=Na bundinha... Da latinha
TTITLE7=Você é uma féra
TTITLE8=Amor e brigas
TTITLE9=Te amar é bom demais
TTITLE10=Dai qui miorô
TTITLE11=Papo virtual
TTITLE12=Nós dois somos um
TTITLE13=Blusa vermelha
TTITLE14=100% paixão
TTITLE15=Você em minha vida
TTITLE16=Minha vida é doce com voce
TTITLE17=Robô apaixonado
TTITLE18=Cara bonita
TTITLE19=Bendito seja
TTITLE20=Ela trabalha comigo
TTITLE21=Dor da paixão
TTITLE22=O futuro do planeta
TTITLE23=Tio joão e tio zé
EXTD=
EXTT0=
EXTT1=
EXTT2=
EXTT3=
EXTT4=
EXTT5=
EXTT6=
EXTT7=
EXTT8=
EXTT9=
EXTT10=
EXTT11=
EXTT12=
EXTT13=
EXTT14=
EXTT15=
EXTT16=
EXTT17=
EXTT18=
EXTT19=
EXTT20=
EXTT21=
EXTT22=
EXTT23=
PLAYORDER=
